<svg width="32" height="15" viewBox="0 0 32 15" fill="none" xmlns="http://www.w3.org/2000/svg">
<path d="M1.25 8.70968L27.7224 8.70968L23.3371 12.9329C22.8478 13.4042 22.8459 14.1701 23.3329 14.6436C23.8199 15.1172 24.6114 15.119 25.1007 14.6477L31.6322 8.35742C31.6327 8.35706 31.633 8.35663 31.6334 8.35627C32.1214 7.88498 32.123 7.11659 31.6335 6.64373C31.633 6.64337 31.6327 6.64294 31.6324 6.64258L25.1009 0.352255C24.6116 -0.118915 23.8201 -0.117282 23.333 0.356368C22.846 0.829896 22.8479 1.5958 23.3372 2.06709L27.7224 6.29032L1.25 6.29032C0.559624 6.29032 0 6.83189 0 7.5C0 8.16811 0.559624 8.70968 1.25 8.70968Z" fill="white"/>
</svg>
