<svg width="14" height="14" viewBox="0 0 14 14" fill="none" xmlns="http://www.w3.org/2000/svg">
<path d="M4.51065 9.05089H4.51129C4.51183 9.05089 4.51236 9.05078 4.51289 9.05078H11.9492C12.1323 9.05078 12.2933 8.92934 12.3436 8.75331L13.9842 3.01112C14.0195 2.88733 13.9948 2.75424 13.9173 2.65149C13.8398 2.54874 13.7186 2.48828 13.5898 2.48828H3.56473L3.27153 1.16884C3.22977 0.981171 3.06335 0.847656 2.87109 0.847656H0.410156C0.183609 0.847656 0 1.03127 0 1.25781C0 1.48436 0.183609 1.66797 0.410156 1.66797H2.54211C2.59402 1.90178 3.94519 7.98213 4.02295 8.33194C3.58705 8.52142 3.28125 8.95604 3.28125 9.46094C3.28125 10.1394 3.83325 10.6914 4.51172 10.6914H11.9492C12.1758 10.6914 12.3594 10.5078 12.3594 10.2812C12.3594 10.0547 12.1758 9.87109 11.9492 9.87109H4.51172C4.2856 9.87109 4.10156 9.68706 4.10156 9.46094C4.10156 9.23514 4.28496 9.05142 4.51065 9.05089ZM13.0461 3.30859L11.6398 8.23047H4.8407L3.74695 3.30859H13.0461Z" fill="white"/>
<path d="M4.10155 11.9219C4.10155 12.6003 4.65355 13.1523 5.33202 13.1523C6.01048 13.1523 6.56248 12.6003 6.56248 11.9219C6.56248 11.2434 6.01048 10.6914 5.33202 10.6914C4.65355 10.6914 4.10155 11.2434 4.10155 11.9219ZM5.33202 11.5117C5.55814 11.5117 5.74217 11.6958 5.74217 11.9219C5.74217 12.148 5.55814 12.332 5.33202 12.332C5.1059 12.332 4.92186 12.148 4.92186 11.9219C4.92186 11.6958 5.1059 11.5117 5.33202 11.5117Z" fill="white"/>
<path d="M9.89842 11.9219C9.89842 12.6003 10.4504 13.1523 11.1289 13.1523C11.8074 13.1523 12.3594 12.6003 12.3594 11.9219C12.3594 11.2434 11.8074 10.6914 11.1289 10.6914C10.4504 10.6914 9.89842 11.2434 9.89842 11.9219ZM11.1289 11.5117C11.355 11.5117 11.539 11.6958 11.539 11.9219C11.539 12.148 11.355 12.332 11.1289 12.332C10.9028 12.332 10.7187 12.148 10.7187 11.9219C10.7187 11.6958 10.9028 11.5117 11.1289 11.5117Z" fill="white"/>
</svg>
