<svg width="150" height="150" viewBox="0 0 150 150" fill="none" xmlns="http://www.w3.org/2000/svg">
<g clip-path="url(#clip0)" filter="url(#filter0_d)">
<path d="M66.1573 48.2304C66.6722 48.7453 67.5068 48.7451 68.0216 48.2304C68.5366 47.7156 68.5366 46.881 68.0218 46.3662C67.0601 45.4045 67.0601 43.8398 68.0218 42.8781C70.0112 40.8886 70.0112 37.6512 68.0218 35.6614C67.5069 35.1466 66.6722 35.1466 66.1575 35.6614C65.6425 36.1762 65.6425 37.0108 66.1573 37.5257C67.119 38.4873 67.119 40.052 66.1573 41.0137C64.1678 43.0033 64.1678 46.2409 66.1573 48.2304ZM93.9979 73.3217L75.0437 92.2761C74.5289 92.7909 74.5289 93.6257 75.0437 94.1403C75.5586 94.6552 76.3932 94.6552 76.9082 94.1403L95.8623 75.1861C96.3772 74.6713 96.3772 73.8366 95.8623 73.3219C95.3475 72.8069 94.5129 72.8069 93.9979 73.3217ZM72.1686 42.2744C72.1686 44.0057 72.8429 45.6336 74.0671 46.8578C74.582 47.3727 75.4167 47.3727 75.9316 46.8578C76.4464 46.343 76.4464 45.5082 75.9316 44.9936C74.4322 43.4942 74.4322 41.0547 75.9316 39.5553C78.4588 37.028 78.4588 32.9157 75.9316 30.3882C75.4166 29.8734 74.582 29.8734 74.0671 30.3882C73.5523 30.903 73.5523 31.7378 74.0671 32.2525C75.5665 33.7518 75.5665 36.1915 74.0671 37.6909C72.8429 38.9151 72.1686 40.543 72.1686 42.2744ZM81.977 48.2304C82.4918 48.7453 83.3264 48.7451 83.8412 48.2304C84.3562 47.7156 84.3562 46.881 83.8414 46.3662C82.8797 45.4045 82.8797 43.8398 83.8414 42.8781C85.8308 40.8886 85.8308 37.6512 83.8414 35.6614C83.3265 35.1466 82.4918 35.1466 81.9771 35.6614C81.4621 36.1762 81.4621 37.0108 81.977 37.5257C82.9386 38.4873 82.9386 40.052 81.977 41.0137C79.9874 43.0033 79.9874 46.2409 81.977 48.2304ZM71.3754 58.6877C63.9832 59.1769 56.2334 61.3865 50.1135 64.7501C44.4752 67.849 37.3576 73.4587 35.4694 82.5857C35.2418 83.6866 35.0973 85.1861 35.702 86.0781C36.2669 86.9122 37.585 87.2997 38.5913 87.478C41.1008 87.9227 43.7306 88.1101 46.1986 88.2463C53.2183 88.6332 58.9911 90.9314 63.3567 95.0774C66.9615 98.5005 70.0498 102.464 72.5957 105.889C76.7071 111.421 83.529 114.725 90.8456 114.725C92.5991 114.725 94.3445 114.53 96.0337 114.146C100.813 113.06 105.104 110.379 108.444 106.392C111.678 102.532 113.828 97.602 114.497 92.5095C114.926 89.2447 114.754 85.9953 113.986 82.8522C112.112 75.1774 107.272 69.0812 99.6003 64.7329C93.4265 61.2334 85.8387 59.1398 77.6575 58.678C76.9305 58.6378 76.3081 59.1931 76.2669 59.9201C76.226 60.6469 76.782 61.2695 77.5088 61.3106C85.1764 61.7432 92.5603 63.7732 98.3001 67.0268C105.314 71.0022 109.73 76.5371 111.425 83.4777C112.115 86.3029 112.269 89.2262 111.883 92.1664C111.278 96.768 109.339 101.219 106.423 104.699C103.456 108.24 99.6615 110.618 95.4491 111.575C93.9513 111.916 92.4024 112.089 90.8445 112.089C84.359 112.088 78.3279 109.183 74.7117 104.317C72.099 100.801 68.9223 96.7268 65.1723 93.1658C60.3403 88.5771 54.0054 86.0363 46.3436 85.6141C43.958 85.4824 41.4234 85.3028 39.0512 84.8823C38.4762 84.7804 38.1116 84.6473 37.9215 84.5565C37.8977 84.3148 37.9021 83.8412 38.0512 83.1202C39.7358 74.9775 46.231 69.8929 51.3832 67.0612C57.1776 63.8765 64.5279 61.7836 71.5494 61.319C72.2758 61.2711 72.8258 60.6432 72.7777 59.9165C72.7299 59.1895 72.099 58.6432 71.3754 58.6877ZM87.209 94.3512C87.209 98.3453 90.4584 101.595 94.4525 101.595C98.4466 101.595 101.696 98.3453 101.696 94.3512C101.696 90.3572 98.4466 87.1078 94.4525 87.1078C90.4584 87.1078 87.209 90.3573 87.209 94.3512ZM99.0593 94.3512C99.0593 96.8915 96.9927 98.9581 94.4525 98.9581C91.9122 98.9581 89.8456 96.8915 89.8456 94.3512C89.8456 91.811 91.9122 89.7444 94.4525 89.7444C96.9927 89.7444 99.0593 91.8111 99.0593 94.3512ZM119.109 81.601C116.908 72.5865 111.061 65.1671 102.201 60.1452C94.5625 55.8158 84.8373 53.3892 74.8168 53.3127C65.5998 53.2466 55.7329 55.6903 47.757 60.0287C38.1698 65.2435 32.1352 72.6742 30.3057 81.5172C29.6749 84.5665 30.0222 87.0964 31.3375 89.0371C32.621 90.9305 34.7519 92.1528 37.6712 92.6701C40.4559 93.1637 43.2759 93.366 45.9084 93.5114C51.6439 93.8274 56.2926 95.6409 59.7258 98.9011C63.0402 102.049 65.952 105.79 68.3633 109.034C74.1264 116.789 83.9516 120.848 93.7724 119.85C94.4968 119.776 95.0243 119.129 94.9506 118.405C94.8768 117.68 94.2289 117.153 93.5056 117.227C84.4629 118.147 75.6394 114.405 70.4794 107.462C68.0012 104.127 65.0013 100.275 61.5414 96.9891C57.6418 93.2861 52.431 91.2302 46.0536 90.8787C43.5033 90.738 40.7785 90.5433 38.1312 90.074C35.94 89.6857 34.3886 88.839 33.5201 87.5576C32.6194 86.2289 32.4067 84.3765 32.8877 82.0513C34.9941 71.8691 42.8215 65.7146 49.0168 62.3447C56.5005 58.2739 66.1315 55.8766 74.7966 55.9492C84.3757 56.0223 93.6464 58.3269 100.901 62.4387C109.112 67.0932 114.523 73.9357 116.548 82.2264C117.393 85.6881 117.583 89.2633 117.111 92.8526C115.7 103.598 108.68 112.671 99.2281 115.968C98.5406 116.208 98.1776 116.96 98.4174 117.647C98.6571 118.334 99.4087 118.697 100.096 118.458C110.481 114.836 118.186 104.92 119.726 93.1959C120.239 89.2821 120.032 85.381 119.109 81.601ZM71.0764 66.4687C70.5613 65.9538 69.7268 65.9538 69.2119 66.4687L55.2502 80.4304C54.7354 80.9452 54.7354 81.7799 55.2502 82.2946C55.7651 82.8094 56.5997 82.8094 57.1147 82.2946L71.0764 68.3329C71.5912 67.8183 71.5912 66.9835 71.0764 66.4687ZM84.0354 67.4648L66.0522 85.448C65.5374 85.9628 65.5374 86.7976 66.0522 87.3122C66.5672 87.8272 67.4016 87.8271 67.9167 87.3122L85.8999 69.329C86.4147 68.8142 86.4147 67.9794 85.8999 67.4648C85.3848 66.9501 84.5503 66.9501 84.0354 67.4648Z" fill="#E52026"/>
</g>
<defs>
<filter id="filter0_d" x="0" y="0" width="150" height="150" filterUnits="userSpaceOnUse" color-interpolation-filters="sRGB">
<feFlood flood-opacity="0" result="BackgroundImageFix"/>
<feColorMatrix in="SourceAlpha" type="matrix" values="0 0 0 0 0 0 0 0 0 0 0 0 0 0 0 0 0 0 127 0"/>
<feOffset/>
<feGaussianBlur stdDeviation="15"/>
<feColorMatrix type="matrix" values="0 0 0 0 0.898039 0 0 0 0 0.12549 0 0 0 0 0.14902 0 0 0 0.74 0"/>
<feBlend mode="normal" in2="BackgroundImageFix" result="effect1_dropShadow"/>
<feBlend mode="normal" in="SourceGraphic" in2="effect1_dropShadow" result="shape"/>
</filter>
<clipPath id="clip0">
<rect width="90" height="90" fill="white" transform="translate(30 30)"/>
</clipPath>
</defs>
</svg>
