<svg width="150" height="134" viewBox="0 0 150 134" fill="none" xmlns="http://www.w3.org/2000/svg">
<g clip-path="url(#clip0)" filter="url(#filter0_d)">
<path d="M117.426 51.1966L97.5034 31.2738C96.1316 29.9019 93.8992 29.9019 92.5273 31.2738L55.1721 68.6291C54.719 69.0824 54.4154 69.6292 54.2616 70.2082C53.6688 70.3648 53.1258 70.6754 52.6818 71.1196L32.0586 91.7425C29.3136 94.4876 29.3138 98.9542 32.0588 101.699C33.3844 103.025 35.1524 103.755 37.0372 103.755C38.9219 103.755 40.6898 103.025 42.0154 101.699L62.6385 81.0761L62.6408 81.0738L75.0947 93.5279C76.7517 95.1847 78.9618 96.0973 81.3183 96.0973C83.6746 96.0973 85.8851 95.1847 87.5418 93.5279L117.426 63.6437C120.858 60.212 120.858 54.6283 117.426 51.1966ZM39.5297 99.2136C38.868 99.8752 37.9828 100.24 37.0372 100.24C36.0914 100.24 35.2062 99.8752 34.5445 99.2134C33.17 97.839 33.17 95.6027 34.5443 94.2282L50.1976 78.5784L55.1811 83.5619L39.5297 99.2136ZM57.6669 81.0762L52.6838 76.0931L55.1721 73.6053L60.0795 78.5125C60.1031 78.539 60.1273 78.5651 60.1528 78.5904L57.6669 81.0762ZM114.941 61.158L85.0563 91.0422C84.0636 92.0351 82.736 92.5819 81.3185 92.5819C80.514 92.5819 79.7389 92.4055 79.037 92.0715L91.9102 79.1985C92.5965 78.5122 92.5965 77.3992 91.9102 76.7127C91.2236 76.0263 90.111 76.0263 89.4243 76.7127L76.3378 89.7992L62.6387 76.1001L57.732 71.1936C57.7082 71.1669 57.6836 71.1405 57.658 71.1148L95.0177 33.7596L113.698 52.4396L100.61 65.527C99.9239 66.2134 99.9239 67.3264 100.61 68.0129C100.954 68.3562 101.403 68.5277 101.853 68.5277C102.303 68.5277 102.753 68.3562 103.096 68.0129L115.97 55.1387C116.908 57.1038 116.566 59.5325 114.941 61.158Z" fill="#E52026"/>
<path d="M99.0548 42.7684C96.8273 40.5411 93.2035 40.5411 90.976 42.7684C89.8969 43.8472 89.3027 45.2819 89.3027 46.8077C89.3027 48.3335 89.8969 49.7681 90.976 50.847C92.0896 51.9606 93.5525 52.5175 95.0153 52.5175C96.478 52.5175 97.9411 51.9606 99.0546 50.847C101.282 48.6197 101.282 44.9957 99.0548 42.7684ZM96.5691 48.3611C95.7125 49.2178 94.3184 49.2178 93.4618 48.3611C93.0469 47.9461 92.8184 47.3944 92.8184 46.8077C92.8184 46.221 93.0469 45.6691 93.4618 45.2543C93.8902 44.8259 94.4528 44.6117 95.0154 44.6117C95.5781 44.6117 96.1407 44.8259 96.5691 45.2543C97.4256 46.1108 97.4256 47.5046 96.5691 48.3611Z" fill="#E52026"/>
<path d="M94.9592 71.1809C94.3062 71.8991 94.3591 73.0108 95.0775 73.6638C95.4143 73.97 95.8373 74.121 96.2594 74.121C96.7373 74.121 97.2136 73.9271 97.5604 73.5457L97.5613 73.5448C98.2142 72.8266 98.1608 71.7154 97.4426 71.0624C96.7241 70.4093 95.6122 70.4626 94.9592 71.1809Z" fill="#E52026"/>
</g>
<defs>
<filter id="filter0_d" x="0" y="-8" width="150" height="150" filterUnits="userSpaceOnUse" color-interpolation-filters="sRGB">
<feFlood flood-opacity="0" result="BackgroundImageFix"/>
<feColorMatrix in="SourceAlpha" type="matrix" values="0 0 0 0 0 0 0 0 0 0 0 0 0 0 0 0 0 0 127 0"/>
<feOffset/>
<feGaussianBlur stdDeviation="15"/>
<feColorMatrix type="matrix" values="0 0 0 0 0.898039 0 0 0 0 0.12549 0 0 0 0 0.14902 0 0 0 0.74 0"/>
<feBlend mode="normal" in2="BackgroundImageFix" result="effect1_dropShadow"/>
<feBlend mode="normal" in="SourceGraphic" in2="effect1_dropShadow" result="shape"/>
</filter>
<clipPath id="clip0">
<rect width="90" height="90" fill="white" transform="translate(30 22)"/>
</clipPath>
</defs>
</svg>
