<svg width="128" height="150" viewBox="0 0 128 150" fill="none" xmlns="http://www.w3.org/2000/svg">
<g clip-path="url(#clip0)" filter="url(#filter0_d)">
<path d="M97.6264 56.8879L94.5069 48.304C93.8681 46.5426 92.4061 45.4292 90.6913 45.3978C88.9843 45.3725 87.4324 46.4509 86.7403 48.1612L85.9772 50.0533C85.2059 49.4102 84.3472 48.8605 83.4117 48.424C80.5825 47.1048 77.4167 46.9647 74.498 48.0285C73.5993 48.3553 72.6908 48.6383 71.7754 48.8796C71.7678 48.8816 71.7604 48.8825 71.7529 48.8844C71.7478 48.8858 71.743 48.8877 71.7379 48.8891C69.2031 49.5538 66.6118 49.8909 64.0014 49.8909C61.3911 49.8909 58.7994 49.5538 56.2648 48.8891C56.2597 48.8877 56.2549 48.8856 56.2498 48.8844C56.2424 48.8825 56.2351 48.8816 56.2275 48.8796C55.3122 48.6385 54.4041 48.3556 53.5055 48.0289C50.5826 46.9643 47.4151 47.105 44.5864 48.4254C43.6526 48.8614 42.7953 49.4103 42.0251 50.0528L41.2617 48.1598C40.5801 46.4748 39.0633 45.3974 37.3832 45.3974C37.3595 45.3974 37.3354 45.3976 37.3115 45.398C35.5968 45.4294 34.1348 46.543 33.4969 48.302L30.3708 56.8893C29.7316 58.6522 30.1403 60.4464 31.4376 61.5718C32.1767 62.213 33.1107 62.5407 34.0789 62.5407C34.8003 62.5407 35.5407 62.3589 36.234 61.9896L38.0329 61.0307C38.7401 64.9976 41.4763 68.4967 45.5236 69.972C47.6165 70.7359 49.7424 71.3647 51.8927 71.8625V82.0081C51.8927 85.4539 54.2742 88.3533 57.4762 89.1437V113.464C57.4762 117.068 60.4034 120 64.0014 120C67.5995 120 70.5266 117.068 70.5266 113.464V108.426C70.5266 107.456 69.7395 106.668 68.7688 106.668C67.7981 106.668 67.011 107.456 67.011 108.426V113.464C67.011 115.129 65.6608 116.484 64.0014 116.484C62.342 116.484 60.9919 115.129 60.9919 113.464V87.5988C60.9919 86.6281 60.2047 85.841 59.2341 85.841C57.1245 85.841 55.4084 84.1217 55.4084 82.0081V72.5539C56.5304 72.7358 57.6578 72.8815 58.7899 72.9917V78.0868C58.7899 79.0574 59.577 79.8446 60.5477 79.8446C61.5183 79.8446 62.3055 79.0574 62.3055 78.0868V73.2176C62.8701 73.2354 63.4352 73.2473 64.0012 73.2473C64.5657 73.2473 65.1291 73.2354 65.6919 73.2178V78.0868C65.6919 79.0574 66.4791 79.8446 67.4497 79.8446C68.4204 79.8446 69.2075 79.0574 69.2075 78.0868V72.9923C70.3413 72.8821 71.4705 72.736 72.5943 72.5539V82.0081C72.5943 84.1215 70.8782 85.841 68.7686 85.841C67.7979 85.841 67.0108 86.6281 67.0108 87.5988V92.6362C67.0108 93.6068 67.7979 94.394 68.7686 94.394C69.7393 94.394 70.5264 93.6068 70.5264 92.6362V89.1437C73.7285 88.3533 76.1099 85.4539 76.1099 82.0081V71.8625C78.2603 71.3645 80.3862 70.7359 82.479 69.972H82.4788C86.5262 68.4963 89.2624 64.9972 89.9698 61.0307L91.7689 61.9896C92.4622 62.3591 93.2024 62.5408 93.9238 62.5408C94.8927 62.5408 95.8272 62.2127 96.5663 61.5704C97.8627 60.4436 98.2686 58.6487 97.6264 56.8879V56.8879ZM34.5807 58.8867C34.2473 59.0646 33.9254 59.0757 33.7414 58.9161C33.5645 58.7626 33.5406 58.4606 33.6751 58.0897L36.8012 49.5024C36.9355 49.1319 37.1449 48.9169 37.3758 48.9129H37.3832C37.6246 48.9129 37.8615 49.1286 38.0021 49.4761L39.458 53.0859C39.1027 53.6929 38.7977 54.3347 38.5527 55.0091C38.3068 55.6857 38.131 56.3706 38.015 57.0563L34.5807 58.8867ZM81.2744 66.6692C81.2742 66.6694 81.2739 66.6694 81.2737 66.6696C75.7071 68.7018 69.8959 69.7321 64.0014 69.7321C60.6642 69.7321 57.3539 69.4011 54.0991 68.7457C54.0443 68.7312 53.9884 68.7194 53.9316 68.7102C51.4949 68.2108 49.0895 67.5311 46.7285 66.6692C42.505 65.1297 40.3195 60.4381 41.8568 56.2101C42.1077 55.5194 42.4468 54.8771 42.8599 54.2916C42.8708 54.2763 42.882 54.2615 42.8924 54.2461C43.6976 53.1211 44.7826 52.2137 46.0738 51.6109C47.1742 51.0973 48.3472 50.8389 49.5232 50.8389C50.4599 50.8389 51.3988 51.0031 52.3037 51.3327C52.7511 51.4953 53.2007 51.6477 53.6521 51.7915L52.2513 57.0239C52.0003 57.9617 52.557 58.9254 53.4948 59.1766C53.647 59.2172 53.8 59.2369 53.9504 59.2369C54.7267 59.2369 55.4372 58.7187 55.6474 57.9331L57.0524 52.6851C58.7656 53.0436 60.4992 53.2687 62.2438 53.3593V58.784C62.2438 59.7547 63.0309 60.5419 64.0016 60.5419C64.9723 60.5419 65.7594 59.7547 65.7594 58.784V53.3593C67.504 53.2687 69.2374 53.0434 70.9506 52.6851L72.3556 57.9331C72.5658 58.7187 73.2762 59.2369 74.0526 59.2369C74.2029 59.2369 74.356 59.2173 74.5082 59.1766C75.446 58.9254 76.0027 57.9617 75.7517 57.0239L74.3509 51.7915C74.8028 51.6477 75.253 51.4951 75.7007 51.3321C77.738 50.5893 79.9487 50.6884 81.9258 51.6102C83.2192 52.2135 84.3056 53.1216 85.1117 54.2477C85.1205 54.2608 85.1302 54.2735 85.1395 54.2865C85.5543 54.8734 85.8948 55.5177 86.1464 56.2104C87.6836 60.4381 85.4979 65.1297 81.2744 66.6692V66.6692ZM94.2602 58.9166C94.0765 59.0758 93.7556 59.0646 93.4223 58.8869L89.9882 57.0565C89.8722 56.3707 89.6966 55.6861 89.4507 55.0097C89.2055 54.3348 88.9003 53.6929 88.5451 53.0859L90.0004 49.4777C90.1431 49.125 90.3888 48.9036 90.6272 48.9129C90.858 48.9169 91.0675 49.1319 91.2022 49.5037L94.323 58.0906C94.4589 58.4629 94.4358 58.7638 94.2602 58.9166Z" fill="#E52026"/>
<path d="M53.4262 43.4291C53.7678 43.9206 54.315 44.1839 54.8713 44.1839C55.2174 44.1839 55.5671 44.0819 55.8729 43.8694C56.6701 43.3154 56.8672 42.2199 56.3133 41.4227C55.7077 40.5514 55.7077 38.9641 56.3094 38.0984C57.7534 36.0378 57.7534 32.8096 56.3094 30.7491C55.7523 29.9544 54.6562 29.7614 53.8609 30.3185C53.0661 30.8757 52.8732 31.9717 53.4303 32.7669C54.038 33.634 54.038 35.2136 53.4264 36.0864C51.9718 38.1794 51.9718 41.3361 53.4262 43.4291V43.4291Z" fill="#E52026"/>
<path d="M62.5604 43.4324C62.9021 43.9219 63.448 44.1838 64.003 44.1838C64.3505 44.1838 64.7015 44.081 65.0079 43.8669C65.8039 43.3111 65.9985 42.2153 65.4426 41.4193C64.8353 40.5496 64.8353 38.9656 65.4411 38.0981C66.8851 36.0376 66.8851 32.8094 65.4411 30.7489C64.8838 29.9542 63.7878 29.7612 62.9926 30.3182C62.1977 30.8754 62.0049 31.9714 62.5619 32.7667C63.1696 33.6338 63.1696 35.2134 62.5604 36.0828C61.0972 38.1779 61.0972 41.3376 62.5604 43.4324V43.4324Z" fill="#E52026"/>
<path d="M71.6919 43.4324C72.0336 43.922 72.5797 44.1839 73.1345 44.1839C73.482 44.1839 73.8331 44.0811 74.1394 43.867C74.9354 43.3111 75.13 42.2153 74.5742 41.4194C73.9668 40.5496 73.9668 38.9657 74.5749 38.095C76.0106 36.0363 76.0106 32.811 74.5749 30.7525C74.0196 29.9563 72.9241 29.7609 72.1274 30.3163C71.3313 30.8716 71.1359 31.9675 71.6913 32.7637C72.2973 33.6325 72.2973 35.2152 71.692 36.0832C70.2287 38.178 70.2287 41.3377 71.6919 43.4324V43.4324Z" fill="#E52026"/>
<path d="M68.7688 98.7711C67.7981 98.7711 67.011 99.5632 67.011 100.534C67.011 101.505 67.7981 102.292 68.7688 102.292C69.7395 102.292 70.5266 101.505 70.5266 100.534V100.524C70.5266 99.5532 69.7396 98.7711 68.7688 98.7711Z" fill="#E52026"/>
</g>
<defs>
<filter id="filter0_d" x="-11" y="0" width="150" height="150" filterUnits="userSpaceOnUse" color-interpolation-filters="sRGB">
<feFlood flood-opacity="0" result="BackgroundImageFix"/>
<feColorMatrix in="SourceAlpha" type="matrix" values="0 0 0 0 0 0 0 0 0 0 0 0 0 0 0 0 0 0 127 0"/>
<feOffset/>
<feGaussianBlur stdDeviation="15"/>
<feColorMatrix type="matrix" values="0 0 0 0 0.898039 0 0 0 0 0.12549 0 0 0 0 0.14902 0 0 0 0.74 0"/>
<feBlend mode="normal" in2="BackgroundImageFix" result="effect1_dropShadow"/>
<feBlend mode="normal" in="SourceGraphic" in2="effect1_dropShadow" result="shape"/>
</filter>
<clipPath id="clip0">
<rect width="90" height="90" fill="white" transform="translate(19 30)"/>
</clipPath>
</defs>
</svg>
