<!-- Generator: Adobe Illustrator 24.0.0, SVG Export Plug-In  -->
<svg version="1.1" xmlns="http://www.w3.org/2000/svg" xmlns:xlink="http://www.w3.org/1999/xlink" x="0px" y="0px" width="219.5px"
	 height="219.5px" viewBox="0 0 219.5 219.5" style="enable-background:new 0 0 219.5 219.5;" xml:space="preserve">
<style type="text/css">
	.st0{fill:#E52026;}
	.st1{fill:#FFFFFF;}
	.st2{fill:#6B1D14;}
	.st3{fill:#F5A9A4;}
</style>
<defs>
</defs>
<circle class="st0" cx="109" cy="110.3" r="106.7"/>
<g>
	<path class="st1" d="M32.8,61.1c-0.1,0-0.1,0-0.1,0.1v2.1c0,0.1,0,0.1,0.1,0.1h5v2.5h-5c-0.1,0-0.1,0-0.1,0.1v0.8
		c0,0.1,0,0.1,0.1,0.1H39v2.5h-8.8V58.6H39v2.5H32.8z"/>
	<path class="st1" d="M47.8,63.5c0.5,0.3,0.9,0.7,1.1,1.2s0.4,0.9,0.4,1.5s-0.1,1-0.4,1.5s-0.6,0.8-1.1,1.2
		c-0.4,0.3-0.8,0.5-1.3,0.6c-0.5,0.1-1,0.2-1.6,0.2s-1.1-0.1-1.6-0.2c-0.5-0.1-1-0.3-1.4-0.6c-0.3-0.2-0.5-0.4-0.7-0.6L41,67.9
		l0.8-2.5l0.7,0.6c0.1,0.1,0.2,0.2,0.3,0.2c0.1,0,0.2,0.1,0.3,0.2l0.1,0.1c0.2,0.1,0.5,0.3,0.8,0.3c0.3,0.1,0.6,0.1,0.9,0.1
		c0.3,0,0.6,0,0.9-0.1c0.3-0.1,0.6-0.2,0.8-0.3c0.2-0.1,0.2-0.3,0.2-0.4c0-0.2-0.1-0.3-0.2-0.4c-0.2-0.1-0.5-0.3-0.8-0.3
		c-0.3-0.1-0.6-0.1-0.9-0.1c-0.5,0-1.1-0.1-1.6-0.2c-0.5-0.1-1-0.3-1.4-0.6c-0.5-0.3-0.9-0.7-1.1-1.2s-0.4-0.9-0.4-1.5
		s0.1-1,0.4-1.5s0.6-0.8,1.1-1.2c0.4-0.3,0.9-0.5,1.4-0.6c0.5-0.1,1-0.2,1.6-0.2s1.1,0.1,1.6,0.2c0.5,0.1,1,0.3,1.3,0.6
		c0.1,0.1,0.3,0.2,0.4,0.3s0.2,0.2,0.3,0.3l0.2,0.3L48,62.6l-0.7-0.7c-0.1-0.1-0.2-0.1-0.2-0.2c-0.1,0-0.2-0.1-0.3-0.2
		c0,0,0,0-0.1-0.1c0,0-0.1,0-0.1-0.1c-0.2-0.1-0.5-0.3-0.8-0.3c-0.3-0.1-0.6-0.1-0.9-0.1c-0.3,0-0.6,0-0.9,0.1
		c-0.3,0.1-0.6,0.2-0.8,0.3c-0.2,0.1-0.2,0.3-0.2,0.4c0,0.2,0.1,0.3,0.2,0.4c0.2,0.1,0.5,0.3,0.8,0.3c0.3,0.1,0.6,0.1,0.9,0.1
		c0.5,0,1.1,0.1,1.6,0.2C47,63.1,47.5,63.3,47.8,63.5z"/>
	<path class="st1" d="M59.8,58.6v2.5h-3.4c-0.1,0-0.1,0-0.1,0.1v8.3h-2.5v-8.3c0-0.1,0-0.1-0.1-0.1h-3.4v-2.5H59.8z"/>
</g>
<g>
	<path class="st1" d="M164.3,58.5h2.7v4l-1.3-1.5h-1.3V58.5z"/>
	<path class="st1" d="M175.7,66.9v2.5h-7.3v-2.1l4.2-4.9c0.2-0.2,0.2-0.4,0.2-0.6c0-0.2-0.1-0.4-0.2-0.6c-0.2-0.2-0.4-0.2-0.6-0.2
		h-0.9c-0.3,0-0.5,0.1-0.6,0.3L170,62l-0.5-0.7c-0.1-0.1-0.2-0.3-0.4-0.5c-0.2-0.2-0.3-0.4-0.4-0.6l-0.2-0.4l0.3-0.3
		c0.6-0.6,1.3-0.9,2.2-0.9h0h1c0.4,0,0.8,0.1,1.2,0.3c0.4,0.2,0.7,0.4,1,0.7c0.3,0.3,0.5,0.7,0.7,1.1c0.2,0.4,0.2,0.8,0.2,1.2
		c0,0.4-0.1,0.8-0.2,1.1s-0.3,0.7-0.6,1l0,0l-2.7,2.9H175.7z"/>
	<path class="st1" d="M184.6,60.4c0.3,0.5,0.5,1.1,0.5,1.7s0.1,1.2,0.1,1.9v1h0c0,0.5-0.1,0.9-0.1,1.3c-0.1,0.4-0.2,0.8-0.4,1.2
		c-0.4,0.6-0.9,1.1-1.6,1.4c-0.2,0.1-0.5,0.2-0.8,0.3c-0.3,0.1-0.6,0.1-0.9,0.1h-0.1h0c-0.3,0-0.7-0.1-0.9-0.1
		c-0.3-0.1-0.6-0.1-0.8-0.3c-0.7-0.3-1.2-0.8-1.6-1.4c-0.1-0.3-0.3-0.5-0.3-0.8c-0.1-0.3-0.1-0.6-0.2-0.9s-0.1-0.6-0.1-0.9
		c0-0.3,0-0.6,0-1v-1h0c0-0.5,0.1-0.9,0.1-1.3c0.1-0.4,0.2-0.8,0.4-1.2c0.4-0.6,0.9-1.1,1.6-1.4c0.2-0.1,0.5-0.2,0.8-0.3
		c0.3-0.1,0.6-0.1,0.9-0.1h0h0.1c0.3,0,0.7,0.1,0.9,0.1s0.6,0.2,0.8,0.3C183.7,59.2,184.2,59.7,184.6,60.4z M180.8,61.2
		C180.8,61.1,180.8,61.1,180.8,61.2c-0.4,0-0.6,0.1-0.7,0.2c-0.1,0.1-0.2,0.2-0.2,0.2c-0.1,0.2-0.2,0.6-0.2,1c0,0.4,0,0.9,0,1.3v0
		c0,0,0,0.1,0,0.1c0,0,0.1,0,0.1,0L180.8,61.2z M181.3,66.7C181.3,66.8,181.3,66.8,181.3,66.7C181.3,66.8,181.3,66.8,181.3,66.7
		c0.3,0.1,0.4,0,0.6,0c0.1-0.1,0.2-0.1,0.3-0.2s0.1-0.1,0.2-0.2c0,0,0.1-0.1,0.1-0.1c0.1-0.2,0.2-0.6,0.2-1c0-0.4,0-0.9,0-1.3v0
		v-0.6c0,0,0-0.1-0.1-0.1c0,0-0.1,0-0.1,0L181.3,66.7z"/>
</g>
<g>
	<path class="st1" d="M39.8,146.4l4.4,7.9l6.3-3.5l2.6,4.6l-6.3,3.5l4.4,7.9l6.3-3.5l2.6,4.6l-11.7,6.5l-14-25.1l-1.6,0.9l-1.2-5.4
		l0.2-0.1l0,0l11.7-6.5l2.6,4.6L39.8,146.4z"/>
	<path class="st1" d="M80.7,160.8l-5.8,1.9l-3.9-6.5l-6,2l0.8,7.6l-5.8,1.9l-2.5-29.4l-1.7,0.6l-0.2-5.5l6.5-2.2L80.7,160.8z
		 M68.2,151.5l-4.8-8l1,9.3L68.2,151.5z"/>
	<path class="st1" d="M91.6,130.4l-5.2,0.8l4.4,28.4l-6.1,0.9l-4.4-28.4l-5.2,0.8l0.7-5.5l15-2.3L91.6,130.4z"/>
	<path class="st1" d="M121.5,125l-0.8,34l-6.1-0.2l0.4-15.6l-3.4,15.5l-4.5-0.1l-2.7-15.7l-0.4,15.6l-6.1-0.2l0.7-28.7l-1.8,0
		l1.7-5.2l8.9,0.2l2.3,18.9l3.2-18.8L121.5,125z"/>
	<path class="st1" d="M135.9,133.2l-1.9,8.9l7.1,1.5l-1.1,5.2l-7.1-1.5l-1.9,8.9l7.1,1.5l-1.1,5.2l-13.1-2.8l6.1-28.1l-1.8-0.4
		l2.6-4.8l0.3,0.1l13.1,2.8l-1.1,5.2L135.9,133.2z"/>
	<path class="st1" d="M157.2,170.8l-5.7-2.3l1.3-7.5l-5.8-2.4l-4.3,6.3l-5.7-2.3l17.4-23.9l-1.7-0.7l3.4-4.3l6.3,2.6L157.2,170.8z
		 M153.8,155.7l1.6-9.2l-5.3,7.7L153.8,155.7z"/>
	<path class="st1" d="M185.5,155.4l-4.4-2.9l-15.7,24l-5.1-3.3l15.7-24l-4.4-2.9l4.2-3.6l12.7,8.3L185.5,155.4z"/>
</g>
<g>
	<path class="st1" d="M79,170.9l5.3,3c2.2,1.2,3.1,3.9,1.9,5.9l-1.8,3.1l-4.9-2.7l1.3-2.3c0.2-0.3,0-0.8-0.3-1l-2.2-1.2
		c-0.4-0.2-0.8-0.1-1,0.2l-2.1,3.7c-0.1,0.2-0.1,0.4,0,0.7l4.1,7.7c0.7,1.3,0.7,2.8,0,4l-3,5.3c-1.1,2-3.8,2.7-6,1.4l-5.3-3
		c-2.2-1.2-3.1-3.9-1.9-5.9l1.8-3.1l4.9,2.7l-1.3,2.3c-0.2,0.3,0,0.8,0.3,1l2.2,1.2c0.4,0.2,0.8,0.1,1-0.2l2.1-3.7
		c0.1-0.2,0.1-0.4,0-0.7l-4.1-7.7c-0.7-1.3-0.7-2.8,0-4l3-5.3C74.1,170.3,76.8,169.7,79,170.9z"/>
	<path class="st1" d="M100.6,183.6l-4.7-1.2l-5.9,23.2l-5.4-1.4l5.9-23.2l-4.7-1.2l2.4-3.9l13.4,3.4L100.6,183.6z"/>
	<path class="st1" d="M115.8,183.7l-0.6,20c-0.1,2.3-2.2,4.1-4.7,4.1l-6-0.2c-2.5-0.1-4.5-2-4.5-4.3l0.6-20c0.1-2.3,2.2-4.1,4.7-4.1
		l6,0.2C113.9,179.5,115.9,181.4,115.8,183.7z M110.2,184.5c0-0.4-0.3-0.7-0.7-0.7l-2.5-0.1c-0.4,0-0.8,0.3-0.8,0.7l-0.5,18.1
		c0,0.4,0.3,0.7,0.7,0.7l2.5,0.1c0.4,0,0.8-0.3,0.8-0.7L110.2,184.5z"/>
	<path class="st1" d="M134.1,191.5l-1.2,1.2l1.6,0.6c1.1,0.4,2,1.3,2.2,2.5l1.7,8.1l-5.5,1.2l-1.7-7.8c0-0.2-0.2-0.4-0.4-0.5
		l-2.1-0.8c-0.1-0.1-0.3-0.1-0.5,0l-1.3,0.3l2.1,9.7l-5.4,1.2l-5-23.4L117,184l0.4-4.6l10.6-2.3c2.5-0.5,4.9,0.9,5.4,3.1l1.7,8.1
		C135.4,189.5,135,190.7,134.1,191.5z M128.1,182.3c-0.1-0.4-0.5-0.6-0.9-0.5l-3.2,0.7l2,9.4l1.3-0.3c0.2,0,0.3-0.1,0.4-0.2l1.6-1.6
		c0.2-0.2,0.2-0.4,0.2-0.6L128.1,182.3z"/>
	<path class="st1" d="M140.7,176.6l3.6,6.7l5.8-3.1l2.1,3.9l-5.8,3.1l3.6,6.7l5.8-3.1l2.1,3.9l-10.7,5.7l-11.3-21.1l-1.4,0.8
		l-0.9-4.5l0.2-0.1l0,0l10.7-5.7l2.1,3.9L140.7,176.6z"/>
</g>
<g>
	<path class="st2" d="M121.2,66.9c-0.2,6.2,2.8,10.6,7.9,13.9c0.3,0.2,0.5,0.5,0.8,0.7c0.8,0.6,0.5,1.1,0,1.8
		c-2.8,3.8-6.2,7.2-9.8,10.3c-9.3,7.8-19.8,13.4-30.8,18.2c-2.1,0.9-4.3,1.8-6.7,2.8c3.6,0.3,4,0.3,6.8-0.9
		c3.9-1.6,7.7-3.4,11.4-5.3c12-6.3,23.1-13.7,31.2-25c0.1-0.1,0.3-0.2,0.5-0.2c0.3,0.2,0.6,0.4,0.9,0.5c2.4,1.3,2.4,1.3,0.6,3.4
		c-9.8,11.6-21.9,20.3-35.6,26.8c-0.4,0.2-0.9,0.4-1.3,0.6c-0.1,0.1-0.2,0.2-0.5,0.5c3.7,0,7.1,0,10.4,0.7c-13.5,1.1-27,1-40.5,0
		c3.4-0.8,6.8-0.7,10.2-0.7c1.5,0,1.9-0.2,1.1-1.8c-3.8-7.7-7.5-15.4-11.2-23.1c-1.6-3.3-1.2-4.3,2.2-5.7
		c12.3-5.1,24-11.1,34.7-19.2c2.2-1.7,4.3-3.4,6.3-5.3c0.5-0.4,0.8-1.1,1.6-1.1C113.7,62.7,117,65.4,121.2,66.9z M105,66.9
		c2.5-1.1,4.6-2.8,7.1-3.9c1-0.4-0.1-1-0.3-1.4c-0.2-0.3-0.4-1.3-1.1-0.5c-1.7,2.1-3.9,3.7-5.8,5.6c-0.1,0-0.4,0.1-0.2,0.3
		C104.7,67.2,104.9,67.1,105,66.9z M75.3,89.1c-0.1-1.5-0.9-2.3-2.3-2.4c-1.3-0.1-2.5,1.1-2.4,2.4c0.1,1.4,0.9,2.2,2.4,2.2
		C74.4,91.3,75.1,90.5,75.3,89.1z M83.9,112.1c-2.7-0.6-4.8-1.6-6.8-3.2c-0.1,0.8,0.3,1.2,0.5,1.6C79.6,114.5,79.6,114.5,83.9,112.1
		z"/>
	<path class="st2" d="M112.9,57.4c0.7-1.9,2.4-3,3.7-4.4c8.9-9.7,18.2-18.9,28.8-26.8c1.9-1.4,3.8-2.9,6.1-3.6c3.1-1,4.6-0.2,5.3,3
		c0.2,1.2,0.5,2.4,0.7,3.6c0.5,2.7-0.7,4.3-3.4,4.9c-0.2,0-0.4,0.1-0.5,0.1c-4.3,0.3-6.4,2.8-7.9,6.7c-2.3,6.1-7.4,9.6-13.3,12
		c-2.1,0.9-4.3,1.7-6.1,3.2c-2.9,2.3-4.5,5.2-5.1,8.8C117.5,63.3,114.9,60.6,112.9,57.4z M156.2,29.4c-0.4,3.1-2.7,3-4.7,3.3
		c-3.9,0.7-5.6,2-6.9,5.8c0.1,0,0.1,0,0.2,0c0.4-0.1,0.5-0.5,0.6-0.8c1.5-2.5,3.6-4.1,6.6-4.3c0.9-0.1,1.9-0.4,2.8-0.8
		C156,32,156.8,31.1,156.2,29.4z M154.6,26.6c-0.2-1-0.7-1.8-1.9-1.9c-1.2,0-2,0.7-2.1,1.8c-0.1,1.2,0.7,2,1.9,2
		C153.7,28.7,154.4,28,154.6,26.6z M130.5,43.7c-1.3,0-2,0.8-2,1.9c0,1.2,0.7,1.9,1.9,1.9c1.2,0,1.9-0.7,1.9-1.9
		C132.3,44.4,131.6,43.8,130.5,43.7z"/>
	<path class="st3" d="M132.5,83.2c-0.2,0.1-0.4,0.1-0.5,0.2c-8,11.2-19.2,18.6-31.2,25c-3.7,2-7.5,3.7-11.4,5.3
		c-2.8,1.2-3.2,1.2-6.8,0.9c2.4-1,4.6-1.9,6.7-2.8c11-4.8,21.5-10.5,30.8-18.2c3.6-3.1,7-6.4,9.8-10.3c0.5-0.7,0.8-1.2,0-1.8
		C131.1,81.5,131.8,82.5,132.5,83.2z"/>
	<path class="st3" d="M112.9,57.4c2.1,3.3,4.6,5.9,8.4,7.2c0,0.8,0,1.5,0,2.3c-4.2-1.5-7.5-4.2-9.8-8.1
		C111.8,58.2,112.2,57.7,112.9,57.4z"/>
	<path class="st3" d="M75.3,89.1c-0.2,1.4-0.9,2.2-2.3,2.2c-1.5,0-2.2-0.8-2.4-2.2c-0.1-1.3,1.1-2.5,2.4-2.4
		C74.4,86.8,75.2,87.6,75.3,89.1z"/>
	<path class="st3" d="M83.9,112.1c-4.3,2.3-4.3,2.3-6.2-1.6c-0.2-0.5-0.6-0.9-0.5-1.6C79.1,110.5,81.2,111.5,83.9,112.1z"/>
	<path class="st3" d="M104.9,66.8c1.9-1.9,4.1-3.5,5.8-5.6c0.7-0.8,0.9,0.2,1.1,0.5c0.2,0.4,1.3,0.9,0.3,1.4
		c-2.5,1.1-4.7,2.8-7.1,3.9L104.9,66.8z"/>
	<path class="st3" d="M105,66.9c-0.1,0.2-0.2,0.3-0.3,0.2c-0.1-0.2,0.1-0.2,0.2-0.3C104.9,66.8,105,66.9,105,66.9z"/>
	<path class="st3" d="M156.2,29.4c0.5,1.7-0.3,2.7-1.5,3.3c-0.9,0.4-1.8,0.7-2.8,0.8c-3,0.3-5.1,1.8-6.6,4.3
		c-0.2,0.3-0.2,0.7-0.6,0.8c0,0-0.1,0-0.2,0c1.4-3.8,3-5.2,6.9-5.8C153.5,32.4,155.9,32.5,156.2,29.4z"/>
	<path class="st3" d="M154.6,26.6c-0.2,1.3-0.9,2.1-2.1,2c-1.2-0.1-2-0.8-1.9-2c0.1-1.2,0.8-1.9,2.1-1.8
		C153.9,24.8,154.4,25.6,154.6,26.6z"/>
	<path class="st3" d="M130.5,43.7c1.1,0.1,1.8,0.7,1.8,1.9c0,1.3-0.8,1.9-1.9,1.9c-1.2,0-2-0.8-1.9-1.9
		C128.5,44.5,129.2,43.8,130.5,43.7z"/>
</g>
<path class="st2" d="M109.7,219.5C49.2,219.5,0,170.3,0,109.7S49.2,0,109.7,0c60.5,0,109.7,49.2,109.7,109.7
	S170.3,219.5,109.7,219.5z M109.7,6C52.5,6,6,52.5,6,109.7C6,167,52.5,213.5,109.7,213.5S213.5,167,213.5,109.7
	C213.5,52.5,167,6,109.7,6z"/>
</svg>
