<svg width="114" height="130" viewBox="0 0 114 130" fill="none" xmlns="http://www.w3.org/2000/svg">
<g filter="url(#filter0_d)">
<path d="M57 26C42.2996 26 30.3398 37.9597 30.3398 52.6602C30.3398 62.1501 33.2267 65.9558 47.099 84.2436C49.507 87.418 52.2364 91.0161 55.3594 95.1797C55.7467 95.6961 56.3546 96 57.0001 96C57.6457 96 58.2534 95.6959 58.6408 95.1794C61.7454 91.0382 64.4629 87.4538 66.8607 84.2914C80.7664 65.9504 83.6602 62.1337 83.6602 52.6602C83.6602 37.9597 71.7004 26 57 26ZM63.5924 81.8134C61.6231 84.4108 59.4385 87.2922 56.9996 90.5345C54.544 87.2715 52.3469 84.3751 50.3667 81.7646C36.8728 63.9758 34.4414 60.7704 34.4414 52.6602C34.4414 40.2213 44.5612 30.1016 57 30.1016C69.4388 30.1016 79.5586 40.2213 79.5586 52.6602C79.5586 60.7546 77.1209 63.9698 63.5924 81.8134Z" fill="#E52026"/>
<path d="M57 38.3047C49.0844 38.3047 42.6445 44.7446 42.6445 52.6602C42.6445 60.5758 49.0844 67.0156 57 67.0156C64.9156 67.0156 71.3555 60.5758 71.3555 52.6602C71.3555 44.7446 64.9156 38.3047 57 38.3047ZM57 62.9141C51.346 62.9141 46.7461 58.3142 46.7461 52.6602C46.7461 47.0062 51.346 42.4062 57 42.4062C62.654 42.4062 67.2539 47.0062 67.2539 52.6602C67.2539 58.3142 62.654 62.9141 57 62.9141Z" fill="#E52026"/>
</g>
<defs>
<filter id="filter0_d" x="-8" y="0" width="130" height="130" filterUnits="userSpaceOnUse" color-interpolation-filters="sRGB">
<feFlood flood-opacity="0" result="BackgroundImageFix"/>
<feColorMatrix in="SourceAlpha" type="matrix" values="0 0 0 0 0 0 0 0 0 0 0 0 0 0 0 0 0 0 127 0"/>
<feOffset dy="4"/>
<feGaussianBlur stdDeviation="15"/>
<feColorMatrix type="matrix" values="0 0 0 0 0.898039 0 0 0 0 0.12549 0 0 0 0 0.14902 0 0 0 0.75 0"/>
<feBlend mode="normal" in2="BackgroundImageFix" result="effect1_dropShadow"/>
<feBlend mode="normal" in="SourceGraphic" in2="effect1_dropShadow" result="shape"/>
</filter>
</defs>
</svg>
