<svg width="130" height="130" viewBox="0 0 130 130" fill="none" xmlns="http://www.w3.org/2000/svg">
<g clip-path="url(#clip0)" filter="url(#filter0_d)">
<path d="M98.2016 80.3989L86.6033 68.8008C84.1997 66.397 80.3089 66.3966 77.9049 68.8008L75.0052 71.7004C72.6066 74.0988 68.7047 74.0985 66.297 71.6909L54.1534 59.708C51.7551 57.3097 51.7551 53.4077 54.1534 51.0094L57.0529 48.1099C59.4513 45.7117 59.4513 41.8096 57.0529 39.4113L45.4549 27.8132C43.0566 25.4148 39.1543 25.4151 36.7563 27.8132L33.8571 30.7127C30.0935 34.4762 28.9866 42.7739 30.9684 52.3674C32.2314 58.4816 35.8649 70.2535 46.0102 80.3987C56.1349 90.5236 67.8113 93.9983 73.8703 95.1683C80.5303 96.4545 90.5391 96.7596 95.3019 91.997L98.2017 89.0973C100.6 86.6992 100.6 82.7971 98.2016 80.3989ZM39.6561 30.7127C40.4557 29.9133 41.7561 29.9132 42.5558 30.7127L54.1539 42.3108C54.9535 43.1104 54.9535 44.411 54.1539 45.2105L52.7114 46.653L38.2135 32.1554L39.6561 30.7127ZM74.648 91.1422C69.0496 90.0612 58.2615 86.8512 48.9097 77.4994C39.5198 68.1092 36.1545 57.2032 34.9842 51.538C33.4339 44.0337 34.0794 38.3929 35.5847 35.3254L49.9561 49.6971C47.3187 53.6762 47.7521 59.1056 51.2637 62.6171L63.4073 74.6C66.9089 78.1015 72.3351 78.5375 76.3177 75.898L90.7008 90.2812C86.3179 92.5038 79.5017 92.0795 74.648 91.1422ZM95.3021 86.1978L93.8594 87.6405L79.3617 73.1429L80.8043 71.7004C81.6054 70.8991 82.9024 70.8991 83.7038 71.7004L95.3019 83.2986C96.1013 84.0978 96.1013 85.3986 95.3021 86.1978Z" fill="#E52026"/>
<path d="M69.2428 26.0156C68.1105 26.0156 67.1926 26.9336 67.1926 28.0659C67.1926 29.1982 68.1105 30.1161 69.2428 30.1161C83.9395 30.1161 95.8963 42.0728 95.8963 56.7695C95.8963 57.9018 96.8142 58.8198 97.9465 58.8198C99.0788 58.8198 99.9967 57.9018 99.9967 56.7695C99.9967 39.8118 86.2006 26.0156 69.2428 26.0156Z" fill="#E52026"/>
<path d="M69.2428 34.2168C68.1105 34.2168 67.1926 35.1347 67.1926 36.267C67.1926 37.3993 68.1105 38.3173 69.2428 38.3173C79.4174 38.3173 87.6952 46.595 87.6952 56.7696C87.6952 57.902 88.6131 58.8199 89.7454 58.8199C90.8777 58.8199 91.7957 57.902 91.7957 56.7696C91.7957 44.334 81.6785 34.2168 69.2428 34.2168Z" fill="#E52026"/>
<path d="M69.2428 42.4179C68.1105 42.4179 67.1926 43.3358 67.1926 44.4681C67.1926 45.6004 68.1105 46.5184 69.2428 46.5184C74.8954 46.5184 79.4941 51.117 79.4941 56.7697C79.4941 57.902 80.412 58.8199 81.5443 58.8199C82.6766 58.8199 83.5946 57.902 83.5946 56.7697C83.5947 48.8561 77.1564 42.4179 69.2428 42.4179Z" fill="#E52026"/>
<path d="M69.2428 50.6189C68.1105 50.6189 67.1926 51.5368 67.1926 52.6691C67.1926 53.8014 68.1105 54.7194 69.2428 54.7194C70.3733 54.7194 71.293 55.6391 71.293 56.7696C71.293 57.9019 72.211 58.8198 73.3433 58.8198C74.4756 58.8198 75.3935 57.9019 75.3935 56.7696C75.3936 53.378 72.6344 50.6189 69.2428 50.6189Z" fill="#E52026"/>
</g>
<defs>
<filter id="filter0_d" x="0" y="0" width="130" height="130" filterUnits="userSpaceOnUse" color-interpolation-filters="sRGB">
<feFlood flood-opacity="0" result="BackgroundImageFix"/>
<feColorMatrix in="SourceAlpha" type="matrix" values="0 0 0 0 0 0 0 0 0 0 0 0 0 0 0 0 0 0 127 0"/>
<feOffset dy="4"/>
<feGaussianBlur stdDeviation="15"/>
<feColorMatrix type="matrix" values="0 0 0 0 0.898039 0 0 0 0 0.12549 0 0 0 0 0.14902 0 0 0 0.75 0"/>
<feBlend mode="normal" in2="BackgroundImageFix" result="effect1_dropShadow"/>
<feBlend mode="normal" in="SourceGraphic" in2="effect1_dropShadow" result="shape"/>
</filter>
<clipPath id="clip0">
<rect width="70" height="70" fill="white" transform="translate(30 26)"/>
</clipPath>
</defs>
</svg>
