<svg width="29" height="29" viewBox="0 0 29 29" fill="none" xmlns="http://www.w3.org/2000/svg">
<path d="M14.5036 0H14.4964C6.50144 0 0 6.50325 0 14.5C0 17.6719 1.02225 20.6117 2.76044 22.9988L0.953375 28.3856L6.52681 26.6039C8.81962 28.1228 11.5547 29 14.5036 29C22.4986 29 29 22.4949 29 14.5C29 6.50506 22.4986 0 14.5036 0Z" fill="#E8E5E4"/>
<path d="M22.9408 20.4758C22.591 21.4636 21.2026 22.2829 20.0952 22.5221C19.3376 22.6835 18.3479 22.8121 15.0166 21.431C10.7554 19.6656 8.01125 15.3356 7.79737 15.0546C7.59256 14.7737 6.07549 12.7618 6.07549 10.6811C6.07549 8.60033 7.13218 7.58715 7.55812 7.15215C7.90793 6.79508 8.48612 6.63196 9.04075 6.63196C9.22018 6.63196 9.3815 6.64102 9.5265 6.64827C9.95243 6.6664 10.1663 6.69177 10.4472 7.36421C10.7971 8.20702 11.6489 10.2878 11.7504 10.5016C11.8537 10.7155 11.9571 11.0055 11.8121 11.2865C11.6761 11.5765 11.5565 11.7051 11.3426 11.9516C11.1287 12.1981 10.9257 12.3866 10.7119 12.6513C10.5161 12.8815 10.295 13.128 10.5415 13.5539C10.788 13.9708 11.6399 15.361 12.8941 16.4775C14.5127 17.9184 15.8249 18.3788 16.2944 18.5745C16.6442 18.7195 17.0611 18.6851 17.3166 18.4132C17.6411 18.0634 18.0416 17.4834 18.4494 16.9125C18.7394 16.5028 19.1056 16.4521 19.4898 16.5971C19.8813 16.733 21.953 17.7571 22.3789 17.9691C22.8049 18.183 23.0858 18.2845 23.1891 18.464C23.2906 18.6434 23.2906 19.4862 22.9408 20.4758Z" fill="black"/>
</svg>
