<svg width="14" height="14" fill="none" xmlns="http://www.w3.org/2000/svg"><path d="M4.51 9.05h7.439a.41.41 0 00.395-.297l1.64-5.742a.41.41 0 00-.394-.523H3.565l-.293-1.32a.41.41 0 00-.4-.32H.41a.41.41 0 100 .82h2.132l1.481 6.664c-.436.19-.742.624-.742 1.129 0 .678.552 1.23 1.23 1.23h7.438a.41.41 0 100-.82H4.512a.41.41 0 01-.001-.82zm8.536-5.741L11.64 8.23h-6.8L3.748 3.31h9.3zm-8.944 8.613c0 .678.552 1.23 1.23 1.23a1.231 1.231 0 10-1.23-1.23zm1.23-.41a.41.41 0 11-.001.821.41.41 0 01.001-.821zm4.566.41a1.232 1.232 0 002.461 0 1.231 1.231 0 00-2.46 0zm1.23-.41a.41.41 0 110 .821.41.41 0 010-.821z" fill="#fff"/></svg>