<svg width="150" height="150" fill="none" xmlns="http://www.w3.org/2000/svg"><g clip-path="url(#clip0)" filter="url(#filter0_d)"><path d="M66.157 48.23a1.318 1.318 0 001.865-1.864 2.47 2.47 0 010-3.488 5.11 5.11 0 000-7.217 1.318 1.318 0 00-1.865 1.865 2.47 2.47 0 010 3.488 5.109 5.109 0 000 7.216zm27.84 25.092L75.045 92.276a1.318 1.318 0 101.864 1.864l18.954-18.954a1.318 1.318 0 10-1.864-1.864zM72.17 42.274a6.44 6.44 0 001.898 4.584 1.318 1.318 0 001.865-1.864 3.85 3.85 0 010-5.439 6.49 6.49 0 000-9.167 1.319 1.319 0 00-1.865 1.864 3.85 3.85 0 010 5.439 6.44 6.44 0 00-1.898 4.583zm9.808 5.956a1.318 1.318 0 001.864-1.864 2.47 2.47 0 010-3.488 5.11 5.11 0 000-7.217 1.318 1.318 0 00-1.864 1.865 2.47 2.47 0 010 3.488 5.109 5.109 0 000 7.216zM71.375 58.688c-7.392.489-15.142 2.698-21.261 6.062-5.639 3.099-12.756 8.709-14.645 17.836-.227 1.1-.372 2.6.233 3.492.565.834 1.883 1.222 2.89 1.4 2.509.445 5.139.632 7.607.768 7.02.387 12.792 2.685 17.158 6.831 3.605 3.424 6.693 7.387 9.239 10.812 4.111 5.532 10.933 8.836 18.25 8.836 1.753 0 3.498-.195 5.188-.579 4.779-1.086 9.07-3.767 12.41-7.754 3.234-3.86 5.384-8.79 6.053-13.882a26.166 26.166 0 00-.511-9.658c-1.874-7.675-6.714-13.77-14.386-18.12-6.173-3.499-13.761-5.592-21.942-6.054a1.32 1.32 0 00-.15 2.633c7.668.432 15.052 2.462 20.792 5.716 7.014 3.975 11.43 9.51 13.125 16.45.69 2.826.844 5.75.458 8.69-.605 4.601-2.544 9.052-5.46 12.532-2.967 3.541-6.761 5.919-10.974 6.876a20.771 20.771 0 01-4.605.514c-6.485-.001-12.516-2.906-16.132-7.772-2.613-3.516-5.79-7.59-9.54-11.151-4.832-4.589-11.167-7.13-18.828-7.552-2.386-.132-4.92-.311-7.293-.732-.575-.102-.94-.235-1.13-.326-.023-.241-.019-.715.13-1.436 1.685-8.142 8.18-13.227 13.332-16.059 5.795-3.185 13.145-5.277 20.166-5.742a1.318 1.318 0 10-.174-2.631zM87.21 94.35c0 3.994 3.25 7.244 7.243 7.244 3.995 0 7.244-3.25 7.244-7.244 0-3.994-3.25-7.243-7.243-7.243-3.995 0-7.244 3.25-7.244 7.243zm11.85 0a4.612 4.612 0 01-4.606 4.607 4.612 4.612 0 01-4.607-4.607 4.612 4.612 0 014.606-4.607 4.612 4.612 0 014.607 4.607zm20.05-12.75c-2.201-9.014-8.048-16.434-16.908-21.456-7.638-4.33-17.364-6.756-27.384-6.832-9.217-.066-19.084 2.377-27.06 6.716-9.587 5.214-15.622 12.645-17.451 21.488-.631 3.05-.284 5.58 1.031 7.52 1.284 1.893 3.415 3.116 6.334 3.633 2.785.494 5.605.696 8.237.841 5.736.316 10.385 2.13 13.818 5.39 3.314 3.148 6.226 6.889 8.637 10.133 5.763 7.755 15.589 11.814 25.41 10.816a1.319 1.319 0 00-.267-2.623c-9.043.92-17.867-2.822-23.027-9.765-2.478-3.335-5.478-7.187-8.938-10.473-3.9-3.703-9.11-5.759-15.487-6.11-2.55-.141-5.276-.336-7.923-.805-2.191-.388-3.742-1.235-4.61-2.516-.902-1.33-1.114-3.182-.633-5.507 2.106-10.182 9.934-16.336 16.129-19.706 7.483-4.071 17.114-6.468 25.78-6.396 9.579.073 18.85 2.378 26.104 6.49 8.211 4.654 13.622 11.497 15.647 19.787a28.8 28.8 0 01.563 10.627c-1.411 10.745-8.431 19.818-17.883 23.115a1.319 1.319 0 00.868 2.49c10.385-3.622 18.09-13.538 19.63-25.262a31.455 31.455 0 00-.617-11.595zM71.076 66.469a1.318 1.318 0 00-1.864 0L55.25 80.43a1.318 1.318 0 101.865 1.865l13.961-13.962a1.318 1.318 0 000-1.864zm12.96.996L66.051 85.448a1.318 1.318 0 101.865 1.864L85.9 69.33a1.318 1.318 0 10-1.865-1.864z" fill="#E52026"/></g><defs><clipPath id="clip0"><path fill="#fff" transform="translate(30 30)" d="M0 0h90v90H0z"/></clipPath><filter id="filter0_d" x="0" y="0" width="150" height="150" filterUnits="userSpaceOnUse" color-interpolation-filters="sRGB"><feFlood flood-opacity="0" result="BackgroundImageFix"/><feColorMatrix in="SourceAlpha" values="0 0 0 0 0 0 0 0 0 0 0 0 0 0 0 0 0 0 127 0"/><feOffset/><feGaussianBlur stdDeviation="15"/><feColorMatrix values="0 0 0 0 0.898039 0 0 0 0 0.12549 0 0 0 0 0.14902 0 0 0 0.74 0"/><feBlend in2="BackgroundImageFix" result="effect1_dropShadow"/><feBlend in="SourceGraphic" in2="effect1_dropShadow" result="shape"/></filter></defs></svg>