<svg width="150" height="134" fill="none" xmlns="http://www.w3.org/2000/svg"><g clip-path="url(#clip0)" filter="url(#filter0_d)" fill="#E52026"><path d="M117.426 51.197L97.503 31.274a3.523 3.523 0 00-4.976 0L55.172 68.629c-.453.453-.757 1-.91 1.58a3.488 3.488 0 00-1.58.91L32.059 91.744a7.048 7.048 0 000 9.956 6.99 6.99 0 004.978 2.056 6.99 6.99 0 004.978-2.056l20.623-20.623.003-.002 12.454 12.454a8.74 8.74 0 006.223 2.57 8.74 8.74 0 006.224-2.57l29.884-29.884c3.432-3.432 3.432-9.016 0-12.447zM39.53 99.214a3.5 3.5 0 01-2.493 1.026 3.499 3.499 0 01-2.492-1.027 3.53 3.53 0 010-4.985l15.653-15.65 4.983 4.984L39.53 99.214zm18.137-18.138l-4.983-4.983 2.488-2.488 4.908 4.907c.023.027.047.053.073.078l-2.486 2.486zm57.274-19.918L85.056 91.042a5.247 5.247 0 01-3.737 1.54c-.805 0-1.58-.176-2.282-.51L91.91 79.198a1.758 1.758 0 00-2.486-2.485L76.338 89.799 62.638 76.1l-4.906-4.906a1.951 1.951 0 00-.074-.08l37.36-37.354 18.68 18.68-13.088 13.087a1.758 1.758 0 002.486 2.486l12.874-12.874a5.295 5.295 0 01-1.029 6.019z"/><path d="M99.055 42.768a5.72 5.72 0 00-8.079 0 5.674 5.674 0 00-1.673 4.04c0 1.526.594 2.96 1.673 4.039a5.695 5.695 0 004.04 1.67 5.695 5.695 0 004.039-1.67 5.719 5.719 0 000-8.079zm-2.486 5.593a2.2 2.2 0 01-3.107 0 2.183 2.183 0 01-.644-1.553c0-.587.229-1.139.644-1.554a2.19 2.19 0 011.553-.642 2.19 2.19 0 011.554.642 2.2 2.2 0 010 3.107zM94.96 71.18a1.758 1.758 0 102.6 2.366l.001-.001a1.757 1.757 0 10-2.602-2.364z"/></g><defs><clipPath id="clip0"><path fill="#fff" transform="translate(30 22)" d="M0 0h90v90H0z"/></clipPath><filter id="filter0_d" x="0" y="-8" width="150" height="150" filterUnits="userSpaceOnUse" color-interpolation-filters="sRGB"><feFlood flood-opacity="0" result="BackgroundImageFix"/><feColorMatrix in="SourceAlpha" values="0 0 0 0 0 0 0 0 0 0 0 0 0 0 0 0 0 0 127 0"/><feOffset/><feGaussianBlur stdDeviation="15"/><feColorMatrix values="0 0 0 0 0.898039 0 0 0 0 0.12549 0 0 0 0 0.14902 0 0 0 0.74 0"/><feBlend in2="BackgroundImageFix" result="effect1_dropShadow"/><feBlend in="SourceGraphic" in2="effect1_dropShadow" result="shape"/></filter></defs></svg>