<svg width="128" height="150" fill="none" xmlns="http://www.w3.org/2000/svg"><g clip-path="url(#clip0)" filter="url(#filter0_d)" fill="#E52026"><path d="M97.626 56.888l-3.12-8.584c-.638-1.761-2.1-2.875-3.815-2.906-1.707-.026-3.259 1.053-3.95 2.763l-.764 1.892a11.78 11.78 0 00-2.565-1.629 11.575 11.575 0 00-8.914-.395 31.34 31.34 0 01-2.723.85c-.007.003-.015.004-.022.005l-.015.005A30.452 30.452 0 0164 49.891c-2.61 0-5.202-.337-7.736-1.002l-.015-.005-.023-.004a31.29 31.29 0 01-2.721-.851 11.58 11.58 0 00-8.92.396c-.933.436-1.79.985-2.56 1.628l-.764-1.893c-.682-1.685-2.199-2.763-3.879-2.763l-.072.001c-1.714.031-3.176 1.145-3.814 2.904l-3.126 8.587c-.64 1.763-.23 3.557 1.067 4.683a4.003 4.003 0 002.64.969c.722 0 1.463-.182 2.156-.551l1.799-.96c.707 3.968 3.443 7.467 7.49 8.942a54.256 54.256 0 006.37 1.89v10.146c0 3.446 2.381 6.345 5.583 7.136v24.32c0 3.604 2.927 6.536 6.525 6.536 3.599 0 6.526-2.932 6.526-6.536v-5.038a1.759 1.759 0 00-3.516 0v5.038c0 1.665-1.35 3.02-3.01 3.02a3.018 3.018 0 01-3.01-3.02V87.599c0-.97-.786-1.758-1.757-1.758a3.833 3.833 0 01-3.826-3.833v-9.454c1.122.182 2.25.328 3.382.438v5.095a1.758 1.758 0 003.516 0v-4.87a53.8 53.8 0 001.695.03c.565 0 1.128-.012 1.69-.03v4.87a1.758 1.758 0 003.516 0v-5.095a53.57 53.57 0 003.387-.438v9.454a3.834 3.834 0 01-3.825 3.833c-.971 0-1.758.787-1.758 1.758v5.037a1.758 1.758 0 003.515 0v-3.492a7.36 7.36 0 005.584-7.136V71.863a54.283 54.283 0 006.369-1.891c4.047-1.476 6.783-4.975 7.49-8.941l1.8.959c.693.37 1.433.55 2.155.55a4 4 0 002.642-.97c1.297-1.126 1.703-2.921 1.06-4.682zm-63.045 1.999c-.334.178-.656.189-.84.03-.176-.154-.2-.456-.066-.827l3.126-8.588c.134-.37.344-.585.575-.59h.007c.242 0 .478.217.62.564l1.455 3.61c-.355.607-.66 1.249-.905 1.923a11.695 11.695 0 00-.538 2.047l-3.434 1.83zm46.693 7.782a50.22 50.22 0 01-27.175 2.077 50.646 50.646 0 01-7.37-2.076c-4.224-1.54-6.41-6.232-4.872-10.46.25-.69.59-1.333 1.003-1.918l.032-.046a8.12 8.12 0 013.182-2.635 8.141 8.141 0 013.45-.772c.936 0 1.875.164 2.78.494.447.162.897.315 1.348.459l-1.4 5.232a1.758 1.758 0 003.395.91l1.405-5.249a33.92 33.92 0 005.192.674v5.425a1.758 1.758 0 003.515 0v-5.425a33.942 33.942 0 005.192-.674l1.405 5.248a1.759 1.759 0 103.396-.91l-1.401-5.232c.452-.143.902-.296 1.35-.459a8.083 8.083 0 016.225.278 8.126 8.126 0 013.186 2.638l.028.038a8.152 8.152 0 011.006 1.924c1.538 4.228-.648 8.92-4.872 10.46zm12.986-7.752c-.184.159-.504.148-.838-.03l-3.434-1.83a11.683 11.683 0 00-.537-2.047 11.757 11.757 0 00-.906-1.924L90 49.478c.143-.353.389-.574.627-.565.231.004.44.219.575.59l3.121 8.588c.136.372.113.673-.063.826zM53.426 43.43a1.756 1.756 0 002.447.44c.797-.555.994-1.65.44-2.447-.605-.872-.605-2.459-.004-3.325 1.444-2.06 1.444-5.288 0-7.349a1.758 1.758 0 00-2.879 2.018c.608.867.608 2.447-.004 3.32-1.454 2.092-1.454 5.25 0 7.342zm9.134.002a1.755 1.755 0 002.448.435c.796-.556.99-1.652.435-2.448-.608-.87-.608-2.453-.002-3.32 1.444-2.061 1.444-5.29 0-7.35a1.758 1.758 0 00-2.88 2.018c.609.867.609 2.446 0 3.316-1.464 2.095-1.464 5.255 0 7.35zm9.132 0a1.755 1.755 0 002.447.435 1.758 1.758 0 00.435-2.448c-.607-.87-.607-2.453 0-3.324 1.437-2.059 1.437-5.284 0-7.342a1.758 1.758 0 00-2.883 2.01c.606.87.606 2.452.001 3.32-1.463 2.095-1.463 5.255 0 7.35z"/><path d="M68.769 98.771c-.97 0-1.758.792-1.758 1.763a1.758 1.758 0 103.516 0v-.01c0-.97-.787-1.753-1.758-1.753z"/></g><defs><clipPath id="clip0"><path fill="#fff" transform="translate(19 30)" d="M0 0h90v90H0z"/></clipPath><filter id="filter0_d" x="-11" y="0" width="150" height="150" filterUnits="userSpaceOnUse" color-interpolation-filters="sRGB"><feFlood flood-opacity="0" result="BackgroundImageFix"/><feColorMatrix in="SourceAlpha" values="0 0 0 0 0 0 0 0 0 0 0 0 0 0 0 0 0 0 127 0"/><feOffset/><feGaussianBlur stdDeviation="15"/><feColorMatrix values="0 0 0 0 0.898039 0 0 0 0 0.12549 0 0 0 0 0.14902 0 0 0 0.74 0"/><feBlend in2="BackgroundImageFix" result="effect1_dropShadow"/><feBlend in="SourceGraphic" in2="effect1_dropShadow" result="shape"/></filter></defs></svg>