<svg xmlns="http://www.w3.org/2000/svg" width="219.5" height="219.5"><style>.st1{fill:#fff}.st2{fill:#6b1d14}.st3{fill:#f5a9a4}</style><circle cx="109" cy="110.3" r="106.7" fill="#e52026"/><path class="st1" d="M32.8 61.1c-.1 0-.1 0-.1.1v2.1c0 .1 0 .1.1.1h5v2.5h-5c-.1 0-.1 0-.1.1v.8c0 .1 0 .1.1.1H39v2.5h-8.8V58.6H39v2.5h-6.2zm15 2.4c.5.3.9.7 1.1 1.2s.4.9.4 1.5-.1 1-.4 1.5-.6.8-1.1 1.2c-.4.3-.8.5-1.3.6-.5.1-1 .2-1.6.2s-1.1-.1-1.6-.2-1-.3-1.4-.6c-.3-.2-.5-.4-.7-.6l-.2-.4.8-2.5.7.6c.1.1.2.2.3.2.1 0 .2.1.3.2l.1.1c.2.1.5.3.8.3.3.1.6.1.9.1.3 0 .6 0 .9-.1.3-.1.6-.2.8-.3.2-.1.2-.3.2-.4 0-.2-.1-.3-.2-.4-.2-.1-.5-.3-.8-.3-.3-.1-.6-.1-.9-.1-.5 0-1.1-.1-1.6-.2s-1-.3-1.4-.6c-.5-.3-.9-.7-1.1-1.2s-.4-.9-.4-1.5.1-1 .4-1.5.6-.8 1.1-1.2c.4-.3.9-.5 1.4-.6.5-.1 1-.2 1.6-.2s1.1.1 1.6.2 1 .3 1.3.6c.1.1.3.2.4.3l.3.3.2.3-.7 2.6-.7-.7c-.1-.1-.2-.1-.2-.2-.1 0-.2-.1-.3-.2l-.1-.1s-.1 0-.1-.1c-.2-.1-.5-.3-.8-.3-.3-.1-.6-.1-.9-.1-.3 0-.6 0-.9.1-.3.1-.6.2-.8.3-.2.1-.2.3-.2.4 0 .2.1.3.2.4.2.1.5.3.8.3.3.1.6.1.9.1.5 0 1.1.1 1.6.2.5.4 1 .6 1.3.8zm12-4.9v2.5h-3.4c-.1 0-.1 0-.1.1v8.3h-2.5v-8.3c0-.1 0-.1-.1-.1h-3.4v-2.5h9.5zm104.5-.1h2.7v4l-1.3-1.5h-1.3v-2.5zm11.4 8.4v2.5h-7.3v-2.1l4.2-4.9c.2-.2.2-.4.2-.6 0-.2-.1-.4-.2-.6-.2-.2-.4-.2-.6-.2h-.9c-.3 0-.5.1-.6.3l-.5.7-.5-.7c-.1-.1-.2-.3-.4-.5s-.3-.4-.4-.6l-.2-.4.3-.3c.6-.6 1.3-.9 2.2-.9h1c.4 0 .8.1 1.2.3.4.2.7.4 1 .7.3.3.5.7.7 1.1.2.4.2.8.2 1.2 0 .4-.1.8-.2 1.1s-.3.7-.6 1l-2.7 2.9h4.1zm8.9-6.5c.3.5.5 1.1.5 1.7s.1 1.2.1 1.9v1c0 .5-.1.9-.1 1.3-.1.4-.2.8-.4 1.2-.4.6-.9 1.1-1.6 1.4-.2.1-.5.2-.8.3-.3.1-.6.1-.9.1h-.1c-.3 0-.7-.1-.9-.1-.3-.1-.6-.1-.8-.3-.7-.3-1.2-.8-1.6-1.4-.1-.3-.3-.5-.3-.8-.1-.3-.1-.6-.2-.9s-.1-.6-.1-.9v-2c0-.5.1-.9.1-1.3.1-.4.2-.8.4-1.2.4-.6.9-1.1 1.6-1.4.2-.1.5-.2.8-.3.3-.1.6-.1.9-.1h.1c.3 0 .7.1.9.1s.6.2.8.3c.7.2 1.2.7 1.6 1.4zm-3.8.8c0-.1 0-.1 0 0-.4 0-.6.1-.7.2l-.2.2c-.1.2-.2.6-.2 1V64h.1l1-2.8zm.5 5.5c0 .1 0 .1 0 0 0 .1 0 .1 0 0 .3.1.4 0 .6 0 .1-.1.2-.1.3-.2l.2-.2.1-.1c.1-.2.2-.6.2-1v-1.9s0-.1-.1-.1h-.1l-1.2 3.5zM39.8 146.4l4.4 7.9 6.3-3.5 2.6 4.6-6.3 3.5 4.4 7.9 6.3-3.5 2.6 4.6-11.7 6.5-14-25.1-1.6.9-1.2-5.4.2-.1 11.7-6.5 2.6 4.6-6.3 3.6zm40.9 14.4l-5.8 1.9-3.9-6.5-6 2 .8 7.6-5.8 1.9-2.5-29.4-1.7.6-.2-5.5 6.5-2.2 18.6 29.6zm-12.5-9.3l-4.8-8 1 9.3 3.8-1.3zm23.4-21.1l-5.2.8 4.4 28.4-6.1.9-4.4-28.4-5.2.8.7-5.5 15-2.3.8 5.3zm29.9-5.4l-.8 34-6.1-.2.4-15.6-3.4 15.5-4.5-.1-2.7-15.7-.4 15.6-6.1-.2.7-28.7h-1.8l1.7-5.2 8.9.2 2.3 18.9 3.2-18.8 8.6.3zm14.4 8.2l-1.9 8.9 7.1 1.5-1.1 5.2-7.1-1.5-1.9 8.9 7.1 1.5-1.1 5.2-13.1-2.8L130 132l-1.8-.4 2.6-4.8.3.1 13.1 2.8-1.1 5.2-7.2-1.7z"/><path class="st1" d="M157.2 170.8l-5.7-2.3 1.3-7.5-5.8-2.4-4.3 6.3-5.7-2.3 17.4-23.9-1.7-.7 3.4-4.3 6.3 2.6-5.2 34.5zm-3.4-15.1l1.6-9.2-5.3 7.7 3.7 1.5zm31.7-.3l-4.4-2.9-15.7 24-5.1-3.3 15.7-24-4.4-2.9 4.2-3.6 12.7 8.3-3 4.4zM79 170.9l5.3 3c2.2 1.2 3.1 3.9 1.9 5.9l-1.8 3.1-4.9-2.7 1.3-2.3c.2-.3 0-.8-.3-1l-2.2-1.2c-.4-.2-.8-.1-1 .2l-2.1 3.7c-.1.2-.1.4 0 .7l4.1 7.7c.7 1.3.7 2.8 0 4l-3 5.3c-1.1 2-3.8 2.7-6 1.4l-5.3-3c-2.2-1.2-3.1-3.9-1.9-5.9l1.8-3.1 4.9 2.7-1.3 2.3c-.2.3 0 .8.3 1l2.2 1.2c.4.2.8.1 1-.2l2.1-3.7c.1-.2.1-.4 0-.7l-4.1-7.7c-.7-1.3-.7-2.8 0-4l3-5.3c1.1-2 3.8-2.6 6-1.4z"/><path class="st1" d="M100.6 183.6l-4.7-1.2-5.9 23.2-5.4-1.4 5.9-23.2-4.7-1.2 2.4-3.9 13.4 3.4-1 4.3z"/><path class="st1" d="M115.8 183.7l-.6 20c-.1 2.3-2.2 4.1-4.7 4.1l-6-.2c-2.5-.1-4.5-2-4.5-4.3l.6-20c.1-2.3 2.2-4.1 4.7-4.1l6 .2c2.6.1 4.6 2 4.5 4.3zm-5.6.8c0-.4-.3-.7-.7-.7l-2.5-.1c-.4 0-.8.3-.8.7l-.5 18.1c0 .4.3.7.7.7l2.5.1c.4 0 .8-.3.8-.7l.5-18.1zm23.9 7l-1.2 1.2 1.6.6c1.1.4 2 1.3 2.2 2.5l1.7 8.1-5.5 1.2-1.7-7.8c0-.2-.2-.4-.4-.5l-2.1-.8c-.1-.1-.3-.1-.5 0l-1.3.3 2.1 9.7-5.4 1.2-5-23.4-1.6.2.4-4.6 10.6-2.3c2.5-.5 4.9.9 5.4 3.1l1.7 8.1c.3 1.2-.1 2.4-1 3.2zm-6-9.2c-.1-.4-.5-.6-.9-.5l-3.2.7 2 9.4 1.3-.3c.2 0 .3-.1.4-.2l1.6-1.6c.2-.2.2-.4.2-.6l-1.4-6.9zm12.6-5.7l3.6 6.7 5.8-3.1 2.1 3.9-5.8 3.1 3.6 6.7 5.8-3.1 2.1 3.9-10.7 5.7-11.3-21.1-1.4.8-.9-4.5.2-.1 10.7-5.7 2.1 3.9-5.9 2.9z"/><path class="st2" d="M121.2 66.9c-.2 6.2 2.8 10.6 7.9 13.9.3.2.5.5.8.7.8.6.5 1.1 0 1.8-2.8 3.8-6.2 7.2-9.8 10.3-9.3 7.8-19.8 13.4-30.8 18.2-2.1.9-4.3 1.8-6.7 2.8 3.6.3 4 .3 6.8-.9 3.9-1.6 7.7-3.4 11.4-5.3 12-6.3 23.1-13.7 31.2-25 .1-.1.3-.2.5-.2.3.2.6.4.9.5 2.4 1.3 2.4 1.3.6 3.4-9.8 11.6-21.9 20.3-35.6 26.8-.4.2-.9.4-1.3.6l-.5.5c3.7 0 7.1 0 10.4.7-13.5 1.1-27 1-40.5 0 3.4-.8 6.8-.7 10.2-.7 1.5 0 1.9-.2 1.1-1.8-3.8-7.7-7.5-15.4-11.2-23.1-1.6-3.3-1.2-4.3 2.2-5.7 12.3-5.1 24-11.1 34.7-19.2 2.2-1.7 4.3-3.4 6.3-5.3.5-.4.8-1.1 1.6-1.1 2.3 3.9 5.6 6.6 9.8 8.1zm-16.2 0c2.5-1.1 4.6-2.8 7.1-3.9 1-.4-.1-1-.3-1.4-.2-.3-.4-1.3-1.1-.5-1.7 2.1-3.9 3.7-5.8 5.6-.1 0-.4.1-.2.3 0 .2.2.1.3-.1zM75.3 89.1c-.1-1.5-.9-2.3-2.3-2.4-1.3-.1-2.5 1.1-2.4 2.4.1 1.4.9 2.2 2.4 2.2 1.4 0 2.1-.8 2.3-2.2zm8.6 23c-2.7-.6-4.8-1.6-6.8-3.2-.1.8.3 1.2.5 1.6 2 4 2 4 6.3 1.6zm29-54.7c.7-1.9 2.4-3 3.7-4.4 8.9-9.7 18.2-18.9 28.8-26.8 1.9-1.4 3.8-2.9 6.1-3.6 3.1-1 4.6-.2 5.3 3 .2 1.2.5 2.4.7 3.6.5 2.7-.7 4.3-3.4 4.9-.2 0-.4.1-.5.1-4.3.3-6.4 2.8-7.9 6.7-2.3 6.1-7.4 9.6-13.3 12-2.1.9-4.3 1.7-6.1 3.2-2.9 2.3-4.5 5.2-5.1 8.8-3.7-1.6-6.3-4.3-8.3-7.5zm43.3-28c-.4 3.1-2.7 3-4.7 3.3-3.9.7-5.6 2-6.9 5.8h.2c.4-.1.5-.5.6-.8 1.5-2.5 3.6-4.1 6.6-4.3.9-.1 1.9-.4 2.8-.8 1.2-.6 2-1.5 1.4-3.2zm-1.6-2.8c-.2-1-.7-1.8-1.9-1.9-1.2 0-2 .7-2.1 1.8-.1 1.2.7 2 1.9 2 1.2.2 1.9-.5 2.1-1.9zm-24.1 17.1c-1.3 0-2 .8-2 1.9 0 1.2.7 1.9 1.9 1.9s1.9-.7 1.9-1.9-.7-1.8-1.8-1.9z"/><path class="st3" d="M132.5 83.2c-.2.1-.4.1-.5.2-8 11.2-19.2 18.6-31.2 25-3.7 2-7.5 3.7-11.4 5.3-2.8 1.2-3.2 1.2-6.8.9 2.4-1 4.6-1.9 6.7-2.8 11-4.8 21.5-10.5 30.8-18.2 3.6-3.1 7-6.4 9.8-10.3.5-.7.8-1.2 0-1.8 1.2 0 1.9 1 2.6 1.7zm-19.6-25.8c2.1 3.3 4.6 5.9 8.4 7.2v2.3c-4.2-1.5-7.5-4.2-9.8-8.1.3-.6.7-1.1 1.4-1.4zM75.3 89.1c-.2 1.4-.9 2.2-2.3 2.2-1.5 0-2.2-.8-2.4-2.2-.1-1.3 1.1-2.5 2.4-2.4 1.4.1 2.2.9 2.3 2.4zm8.6 23c-4.3 2.3-4.3 2.3-6.2-1.6-.2-.5-.6-.9-.5-1.6 1.9 1.6 4 2.6 6.7 3.2zm21-45.3c1.9-1.9 4.1-3.5 5.8-5.6.7-.8.9.2 1.1.5.2.4 1.3.9.3 1.4-2.5 1.1-4.7 2.8-7.1 3.9l-.1-.2z"/><path class="st3" d="M105 66.9c-.1.2-.2.3-.3.2-.1-.2.1-.2.2-.3l.1.1zm51.2-37.5c.5 1.7-.3 2.7-1.5 3.3-.9.4-1.8.7-2.8.8-3 .3-5.1 1.8-6.6 4.3-.2.3-.2.7-.6.8h-.2c1.4-3.8 3-5.2 6.9-5.8 2.1-.4 4.5-.3 4.8-3.4zm-1.6-2.8c-.2 1.3-.9 2.1-2.1 2-1.2-.1-2-.8-1.9-2 .1-1.2.8-1.9 2.1-1.8 1.2 0 1.7.8 1.9 1.8zm-24.1 17.1c1.1.1 1.8.7 1.8 1.9 0 1.3-.8 1.9-1.9 1.9-1.2 0-2-.8-1.9-1.9 0-1.1.7-1.8 2-1.9z"/><path class="st2" d="M109.7 219.5C49.2 219.5 0 170.3 0 109.7S49.2 0 109.7 0s109.7 49.2 109.7 109.7-49.1 109.8-109.7 109.8zm0-213.5C52.5 6 6 52.5 6 109.7 6 167 52.5 213.5 109.7 213.5S213.5 167 213.5 109.7C213.5 52.5 167 6 109.7 6z"/></svg>