<svg width="130" height="130" fill="none" xmlns="http://www.w3.org/2000/svg"><g clip-path="url(#clip0)" filter="url(#filter0_d)"><path d="M97.007 26.231L31.132 59.306a2.05 2.05 0 00-.154 3.579l15.43 9.495v21.57a2.05 2.05 0 003.69 1.23l10.545-14.04 23.653 14.556a2.05 2.05 0 003.089-1.362L99.96 28.447a2.45 2.45 0 00.012-.065c.269-1.661-1.473-2.92-2.965-2.151zM48.35 68.76l-12.09-7.44 48.25-24.225L48.35 68.76zm2.158 19.044V72.322l33.967-29.745-33.967 45.227zm33.405 2.84L63.116 77.848 94.275 36.36 83.913 90.646z" fill="#E52026"/></g><defs><clipPath id="clip0"><path fill="#fff" transform="translate(30 26)" d="M0 0h70v70H0z"/></clipPath><filter id="filter0_d" x="0" y="0" width="130" height="130" filterUnits="userSpaceOnUse" color-interpolation-filters="sRGB"><feFlood flood-opacity="0" result="BackgroundImageFix"/><feColorMatrix in="SourceAlpha" values="0 0 0 0 0 0 0 0 0 0 0 0 0 0 0 0 0 0 127 0"/><feOffset dy="4"/><feGaussianBlur stdDeviation="15"/><feColorMatrix values="0 0 0 0 0.898039 0 0 0 0 0.12549 0 0 0 0 0.14902 0 0 0 0.75 0"/><feBlend in2="BackgroundImageFix" result="effect1_dropShadow"/><feBlend in="SourceGraphic" in2="effect1_dropShadow" result="shape"/></filter></defs></svg>