<svg width="114" height="130" fill="none" xmlns="http://www.w3.org/2000/svg"><g filter="url(#filter0_d)" fill="#E52026"><path d="M57 26c-14.7 0-26.66 11.96-26.66 26.66 0 9.49 2.887 13.296 16.759 31.584 2.408 3.174 5.137 6.772 8.26 10.936a2.05 2.05 0 003.282 0c3.104-4.142 5.822-7.726 8.22-10.889 13.905-18.34 16.8-22.157 16.8-31.63C83.66 37.96 71.7 26 57 26zm6.592 55.813c-1.969 2.598-4.154 5.48-6.592 8.721-2.456-3.263-4.653-6.159-6.633-8.77C36.873 63.977 34.44 60.77 34.44 52.66c0-12.439 10.12-22.558 22.559-22.558 12.439 0 22.559 10.12 22.559 22.558 0 8.095-2.438 11.31-15.967 29.153z"/><path d="M57 38.305c-7.916 0-14.355 6.44-14.355 14.355 0 7.916 6.44 14.356 14.355 14.356 7.916 0 14.356-6.44 14.356-14.356 0-7.915-6.44-14.355-14.356-14.355zm0 24.61c-5.654 0-10.254-4.6-10.254-10.255 0-5.654 4.6-10.254 10.254-10.254s10.254 4.6 10.254 10.254S62.654 62.914 57 62.914z"/></g><defs><filter id="filter0_d" x="-8" y="0" width="130" height="130" filterUnits="userSpaceOnUse" color-interpolation-filters="sRGB"><feFlood flood-opacity="0" result="BackgroundImageFix"/><feColorMatrix in="SourceAlpha" values="0 0 0 0 0 0 0 0 0 0 0 0 0 0 0 0 0 0 127 0"/><feOffset dy="4"/><feGaussianBlur stdDeviation="15"/><feColorMatrix values="0 0 0 0 0.898039 0 0 0 0 0.12549 0 0 0 0 0.14902 0 0 0 0.75 0"/><feBlend in2="BackgroundImageFix" result="effect1_dropShadow"/><feBlend in="SourceGraphic" in2="effect1_dropShadow" result="shape"/></filter></defs></svg>