<svg width="130" height="130" fill="none" xmlns="http://www.w3.org/2000/svg"><g clip-path="url(#clip0)" filter="url(#filter0_d)" fill="#E52026"><path d="M98.202 80.399L86.603 68.8a6.147 6.147 0 00-8.698 0l-2.9 2.9c-2.398 2.398-6.3 2.398-8.708-.01L54.153 59.708a6.158 6.158 0 010-8.699l2.9-2.9a6.157 6.157 0 000-8.698L45.455 27.813a6.158 6.158 0 00-8.699 0l-2.899 2.9c-3.764 3.763-4.87 12.06-2.889 21.654 1.263 6.115 4.897 17.887 15.042 28.032 10.125 10.125 21.801 13.6 27.86 14.77 6.66 1.285 16.67 1.59 21.432-3.172l2.9-2.9a6.157 6.157 0 000-8.698zM39.656 30.713c.8-.8 2.1-.8 2.9 0L54.154 42.31c.8.8.8 2.1 0 2.9l-1.443 1.442-14.497-14.498 1.442-1.442zm34.992 60.43C69.05 90.06 58.262 86.85 48.91 77.498c-9.39-9.39-12.755-20.296-13.926-25.961-1.55-7.504-.905-13.145.6-16.213l14.372 14.372c-2.637 3.98-2.204 9.409 1.308 12.92L63.407 74.6c3.502 3.502 8.928 3.938 12.91 1.298l14.384 14.383c-4.383 2.223-11.2 1.798-16.053.861zm20.654-4.945L93.86 87.64 79.362 73.142l1.442-1.443a2.05 2.05 0 012.9 0L95.302 83.3c.8.799.8 2.1 0 2.899zM69.243 26.016a2.05 2.05 0 000 4.1c14.697 0 26.653 11.957 26.653 26.654a2.05 2.05 0 104.1 0c0-16.958-13.795-30.754-30.753-30.754z"/><path d="M69.243 34.217a2.05 2.05 0 100 4.1c10.174 0 18.452 8.278 18.452 18.453a2.05 2.05 0 104.1 0c0-12.436-10.117-22.553-22.552-22.553z"/><path d="M69.243 42.418a2.05 2.05 0 100 4.1c5.652 0 10.251 4.599 10.251 10.252a2.05 2.05 0 104.1 0c0-7.914-6.438-14.352-14.351-14.352z"/><path d="M69.243 50.619a2.05 2.05 0 100 4.1c1.13 0 2.05.92 2.05 2.05a2.05 2.05 0 004.1 0 6.157 6.157 0 00-6.15-6.15z"/></g><defs><clipPath id="clip0"><path fill="#fff" transform="translate(30 26)" d="M0 0h70v70H0z"/></clipPath><filter id="filter0_d" x="0" y="0" width="130" height="130" filterUnits="userSpaceOnUse" color-interpolation-filters="sRGB"><feFlood flood-opacity="0" result="BackgroundImageFix"/><feColorMatrix in="SourceAlpha" values="0 0 0 0 0 0 0 0 0 0 0 0 0 0 0 0 0 0 127 0"/><feOffset dy="4"/><feGaussianBlur stdDeviation="15"/><feColorMatrix values="0 0 0 0 0.898039 0 0 0 0 0.12549 0 0 0 0 0.14902 0 0 0 0.75 0"/><feBlend in2="BackgroundImageFix" result="effect1_dropShadow"/><feBlend in="SourceGraphic" in2="effect1_dropShadow" result="shape"/></filter></defs></svg>